  0
SECTION
  2
HEADER
  9
$ACADVER
  1
AC1009
  9
$FILLMODE
 70
1
  9
$EXTMIN
 10
0.000000
 20
-0.040000
 30
0.000000
  9
$EXTMAX
 10
1.023622
 20
1.956693
 30
0.000000
  0
ENDSEC
  0
SECTION
  2
TABLES
  0
TABLE
  2
LTYPE
 70
1
  0
LTYPE
  2
CONTINUOUS
 70
64
  3
Solid line
 72
65
 73
0
 40
0
  0
ENDTAB
  0
TABLE
  2
LAYER
 70
255
  0
LAYER
  2
17
 70
64
 62
110
  6
CONTINUOUS
  0
LAYER
  2
19
 70
64
 62
53
  6
CONTINUOUS
  0
LAYER
  2
20
 70
64
 62
31
  6
CONTINUOUS
  0
LAYER
  2
23
 70
64
 62
53
  6
CONTINUOUS
  0
LAYER
  2
24
 70
64
 62
53
  6
CONTINUOUS
  0
LAYER
  2
39
 70
64
 62
12
  6
CONTINUOUS
  0
LAYER
  2
40
 70
64
 62
132
  6
CONTINUOUS
  0
LAYER
  2
41
 70
64
 62
12
  6
CONTINUOUS
  0
LAYER
  2
42
 70
64
 62
132
  6
CONTINUOUS
  0
LAYER
  2
43
 70
64
 62
110
  6
CONTINUOUS
  0
LAYER
  2
45
 70
64
 62
253
  6
CONTINUOUS
  0
LAYER
  2
48
 70
64
 62
253
  6
CONTINUOUS
  0
LAYER
  2
49
 70
64
 62
253
  6
CONTINUOUS
  0
LAYER
  2
100
 70
64
 62
253
  6
CONTINUOUS
  0
ENDTAB
  0
ENDSEC
  0
SECTION
  2
BLOCKS
  0
BLOCK
  8
0
  2
RECT
 70
64
 10
0.000000
 20
0.000000
 30
0.000000
  3
RECT
  0
SOLID
  8
0
 10
-0.500000
 20
-0.500000
 30
0.000000
 11
0.500000
 21
-0.500000
 31
0.000000
 12
-0.500000
 22
0.500000
 32
0.000000
 13
0.500000
 23
0.500000
 33
0.000000
  0
ENDBLK
  8
0
  0
BLOCK
  8
0
  2
PIE
 70
64
 10
0.000000
 20
0.000000
 30
0.000000
  3
PIE
  0
POLYLINE
  8
0
 66
1
 10
0.000000
 20
0.000000
 30
0.000000
 40
0.500000
 41
0.500000
 70
0
  0
VERTEX
  8
0
 10
0.000000
 20
-0.250000
 30
0.000000
 42
1.000000
  0
VERTEX
  8
0
 10
0.000000
 20
0.250000
 30
0.000000
 42
1.000000
  0
VERTEX
  8
0
 10
0.000000
 20
-0.250000
 30
0.000000
  0
SEQEND
  8
0
  0
ENDBLK
  8
0
  0
BLOCK
  8
0
  2
OCTAGONP
 70
64
 10
0.000000
 20
0.000000
 30
0.000000
  3
OCTAGONP
  0
POLYLINE
  8
0
 66
1
 10
0.000000
 20
0.000000
 30
0.000000
 40
0.500000
 41
0.500000
 70
0
  0
VERTEX
  8
0
 10
-0.250000
 20
-0.103553
 30
0.000000
  0
VERTEX
  8
0
 10
-0.250000
 20
0.103553
 30
0.000000
  0
VERTEX
  8
0
 10
-0.103553
 20
0.250000
 30
0.000000
  0
VERTEX
  8
0
 10
0.103553
 20
0.250000
 30
0.000000
  0
VERTEX
  8
0
 10
0.250000
 20
0.103553
 30
0.000000
  0
VERTEX
  8
0
 10
0.250000
 20
-0.103553
 30
0.000000
  0
VERTEX
  8
0
 10
0.103553
 20
-0.250000
 30
0.000000
  0
VERTEX
  8
0
 10
-0.103553
 20
-0.250000
 30
0.000000
  0
VERTEX
  8
0
 10
-0.250000
 20
-0.103553
 30
0.000000
  0
VERTEX
  8
0
 10
-0.250000
 20
0.103553
 30
0.000000
  0
SEQEND
  8
0
  0
ENDBLK
  8
0
  0
BLOCK
  8
0
  2
SQUAREP
 70
64
 10
0.000000
 20
0.000000
 30
0.000000
  3
SQUAREP
  0
SOLID
  8
0
 10
-0.500000
 20
-0.500000
 30
0.000000
 11
0.500000
 21
-0.500000
 31
0.000000
 12
-0.500000
 22
0.500000
 32
0.000000
 13
0.500000
 23
0.500000
 33
0.000000
  0
ENDBLK
  8
0
  0
BLOCK
  8
0
  2
ROUNDP
 70
64
 10
0.000000
 20
0.000000
 30
0.000000
  3
ROUNDP
  0
POLYLINE
  8
0
 66
1
 10
0.000000
 20
0.000000
 30
0.000000
 40
0.500000
 41
0.500000
 70
0
  0
VERTEX
  8
0
 10
0.000000
 20
-0.250000
 30
0.000000
 42
1.000000
  0
VERTEX
  8
0
 10
0.000000
 20
0.250000
 30
0.000000
 42
1.000000
  0
VERTEX
  8
0
 10
0.000000
 20
-0.250000
 30
0.000000
  0
SEQEND
  8
0
  0
ENDBLK
  8
0
  0
BLOCK
  8
0
  2
ANNULUSP
 70
64
 10
0.000000
 20
0.000000
 30
0.000000
  3
ANNULUSP
  0
POLYLINE
  8
0
 66
1
 10
0.000000
 20
0.000000
 30
0.000000
 40
0.500000
 41
0.500000
 70
0
  0
VERTEX
  8
0
 10
0.000000
 20
-0.250000
 30
0.000000
 42
1.000000
  0
VERTEX
  8
0
 10
0.000000
 20
0.250000
 30
0.000000
 42
1.000000
  0
VERTEX
  8
0
 10
0.000000
 20
-0.250000
 30
0.000000
  0
SEQEND
  8
0
  0
ENDBLK
  8
0
  0
BLOCK
  8
0
  2
THERMALP
 70
64
 10
0.000000
 20
0.000000
 30
0.000000
  3
THERMALP
  0
POLYLINE
  8
0
 66
1
 10
0.000000
 20
0.000000
 30
0.000000
 40
0.100000
 41
0.100000
 70
0
  0
VERTEX
  8
0
 10
-0.237868
 20
0.450000
 30
0.000000
  0
VERTEX
  8
0
 10
0.237868
 20
0.450000
 30
0.000000
  0
SEQEND
  8
0
  0
POLYLINE
  8
0
 66
1
 10
0.000000
 20
0.000000
 30
0.000000
 40
0.050000
 41
0.050000
 70
0
  0
VERTEX
  8
0
 10
0.237868
 20
0.425000
 30
0.000000
 42
1.000000
  0
VERTEX
  8
0
 10
0.237868
 20
0.475000
 30
0.000000
  0
SEQEND
  8
0
  0
POLYLINE
  8
0
 66
1
 10
0.000000
 20
0.000000
 30
0.000000
 40
0.050000
 41
0.050000
 70
0
  0
VERTEX
  8
0
 10
-0.237868
 20
0.475000
 30
0.000000
 42
1.000000
  0
VERTEX
  8
0
 10
-0.237868
 20
0.425000
 30
0.000000
  0
SEQEND
  8
0
  0
POLYLINE
  8
0
 66
1
 10
0.000000
 20
0.000000
 30
0.000000
 40
0.100000
 41
0.100000
 70
0
  0
VERTEX
  8
0
 10
0.450000
 20
0.237868
 30
0.000000
  0
VERTEX
  8
0
 10
0.450000
 20
-0.237868
 30
0.000000
  0
SEQEND
  8
0
  0
POLYLINE
  8
0
 66
1
 10
0.000000
 20
0.000000
 30
0.000000
 40
0.050000
 41
0.050000
 70
0
  0
VERTEX
  8
0
 10
0.425000
 20
-0.237868
 30
0.000000
 42
1.000000
  0
VERTEX
  8
0
 10
0.475000
 20
-0.237868
 30
0.000000
  0
SEQEND
  8
0
  0
POLYLINE
  8
0
 66
1
 10
0.000000
 20
0.000000
 30
0.000000
 40
0.050000
 41
0.050000
 70
0
  0
VERTEX
  8
0
 10
0.475000
 20
0.237868
 30
0.000000
 42
1.000000
  0
VERTEX
  8
0
 10
0.425000
 20
0.237868
 30
0.000000
  0
SEQEND
  8
0
  0
POLYLINE
  8
0
 66
1
 10
0.000000
 20
0.000000
 30
0.000000
 40
0.100000
 41
0.100000
 70
0
  0
VERTEX
  8
0
 10
0.237868
 20
-0.450000
 30
0.000000
  0
VERTEX
  8
0
 10
-0.237868
 20
-0.450000
 30
0.000000
  0
SEQEND
  8
0
  0
POLYLINE
  8
0
 66
1
 10
0.000000
 20
0.000000
 30
0.000000
 40
0.050000
 41
0.050000
 70
0
  0
VERTEX
  8
0
 10
-0.237868
 20
-0.425000
 30
0.000000
 42
1.000000
  0
VERTEX
  8
0
 10
-0.237868
 20
-0.475000
 30
0.000000
  0
SEQEND
  8
0
  0
POLYLINE
  8
0
 66
1
 10
0.000000
 20
0.000000
 30
0.000000
 40
0.050000
 41
0.050000
 70
0
  0
VERTEX
  8
0
 10
0.237868
 20
-0.475000
 30
0.000000
 42
1.000000
  0
VERTEX
  8
0
 10
0.237868
 20
-0.425000
 30
0.000000
  0
SEQEND
  8
0
  0
POLYLINE
  8
0
 66
1
 10
0.000000
 20
0.000000
 30
0.000000
 40
0.100000
 41
0.100000
 70
0
  0
VERTEX
  8
0
 10
-0.450000
 20
-0.237868
 30
0.000000
  0
VERTEX
  8
0
 10
-0.450000
 20
0.237868
 30
0.000000
  0
SEQEND
  8
0
  0
POLYLINE
  8
0
 66
1
 10
0.000000
 20
0.000000
 30
0.000000
 40
0.050000
 41
0.050000
 70
0
  0
VERTEX
  8
0
 10
-0.425000
 20
0.237868
 30
0.000000
 42
1.000000
  0
VERTEX
  8
0
 10
-0.475000
 20
0.237868
 30
0.000000
  0
SEQEND
  8
0
  0
POLYLINE
  8
0
 66
1
 10
0.000000
 20
0.000000
 30
0.000000
 40
0.050000
 41
0.050000
 70
0
  0
VERTEX
  8
0
 10
-0.475000
 20
-0.237868
 30
0.000000
 42
1.000000
  0
VERTEX
  8
0
 10
-0.425000
 20
-0.237868
 30
0.000000
  0
SEQEND
  8
0
  0
ENDBLK
  8
0
  0
BLOCK
  8
0
  2
OCTAGONV
 70
64
 10
0.000000
 20
0.000000
 30
0.000000
  3
OCTAGONV
  0
POLYLINE
  8
0
 66
1
 10
0.000000
 20
0.000000
 30
0.000000
 40
0.500000
 41
0.500000
 70
0
  0
VERTEX
  8
0
 10
-0.250000
 20
-0.103553
 30
0.000000
  0
VERTEX
  8
0
 10
-0.250000
 20
0.103553
 30
0.000000
  0
VERTEX
  8
0
 10
-0.103553
 20
0.250000
 30
0.000000
  0
VERTEX
  8
0
 10
0.103553
 20
0.250000
 30
0.000000
  0
VERTEX
  8
0
 10
0.250000
 20
0.103553
 30
0.000000
  0
VERTEX
  8
0
 10
0.250000
 20
-0.103553
 30
0.000000
  0
VERTEX
  8
0
 10
0.103553
 20
-0.250000
 30
0.000000
  0
VERTEX
  8
0
 10
-0.103553
 20
-0.250000
 30
0.000000
  0
VERTEX
  8
0
 10
-0.250000
 20
-0.103553
 30
0.000000
  0
VERTEX
  8
0
 10
-0.250000
 20
0.103553
 30
0.000000
  0
SEQEND
  8
0
  0
ENDBLK
  8
0
  0
BLOCK
  8
0
  2
SQUAREV
 70
64
 10
0.000000
 20
0.000000
 30
0.000000
  3
SQUAREV
  0
SOLID
  8
0
 10
-0.500000
 20
-0.500000
 30
0.000000
 11
0.500000
 21
-0.500000
 31
0.000000
 12
-0.500000
 22
0.500000
 32
0.000000
 13
0.500000
 23
0.500000
 33
0.000000
  0
ENDBLK
  8
0
  0
BLOCK
  8
0
  2
ROUNDV
 70
64
 10
0.000000
 20
0.000000
 30
0.000000
  3
ROUNDV
  0
POLYLINE
  8
0
 66
1
 10
0.000000
 20
0.000000
 30
0.000000
 40
0.500000
 41
0.500000
 70
0
  0
VERTEX
  8
0
 10
0.000000
 20
-0.250000
 30
0.000000
 42
1.000000
  0
VERTEX
  8
0
 10
0.000000
 20
0.250000
 30
0.000000
 42
1.000000
  0
VERTEX
  8
0
 10
0.000000
 20
-0.250000
 30
0.000000
  0
SEQEND
  8
0
  0
ENDBLK
  8
0
  0
BLOCK
  8
0
  2
ANNULUSV
 70
64
 10
0.000000
 20
0.000000
 30
0.000000
  3
ANNULUSV
  0
POLYLINE
  8
0
 66
1
 10
0.000000
 20
0.000000
 30
0.000000
 40
0.500000
 41
0.500000
 70
0
  0
VERTEX
  8
0
 10
0.000000
 20
-0.250000
 30
0.000000
 42
1.000000
  0
VERTEX
  8
0
 10
0.000000
 20
0.250000
 30
0.000000
 42
1.000000
  0
VERTEX
  8
0
 10
0.000000
 20
-0.250000
 30
0.000000
  0
SEQEND
  8
0
  0
ENDBLK
  8
0
  0
BLOCK
  8
0
  2
THERMALV
 70
64
 10
0.000000
 20
0.000000
 30
0.000000
  3
THERMALV
  0
POLYLINE
  8
0
 66
1
 10
0.000000
 20
0.000000
 30
0.000000
 40
0.100000
 41
0.100000
 70
0
  0
VERTEX
  8
0
 10
-0.237868
 20
0.450000
 30
0.000000
  0
VERTEX
  8
0
 10
0.237868
 20
0.450000
 30
0.000000
  0
SEQEND
  8
0
  0
POLYLINE
  8
0
 66
1
 10
0.000000
 20
0.000000
 30
0.000000
 40
0.050000
 41
0.050000
 70
0
  0
VERTEX
  8
0
 10
0.237868
 20
0.425000
 30
0.000000
 42
1.000000
  0
VERTEX
  8
0
 10
0.237868
 20
0.475000
 30
0.000000
  0
SEQEND
  8
0
  0
POLYLINE
  8
0
 66
1
 10
0.000000
 20
0.000000
 30
0.000000
 40
0.050000
 41
0.050000
 70
0
  0
VERTEX
  8
0
 10
-0.237868
 20
0.475000
 30
0.000000
 42
1.000000
  0
VERTEX
  8
0
 10
-0.237868
 20
0.425000
 30
0.000000
  0
SEQEND
  8
0
  0
POLYLINE
  8
0
 66
1
 10
0.000000
 20
0.000000
 30
0.000000
 40
0.100000
 41
0.100000
 70
0
  0
VERTEX
  8
0
 10
0.450000
 20
0.237868
 30
0.000000
  0
VERTEX
  8
0
 10
0.450000
 20
-0.237868
 30
0.000000
  0
SEQEND
  8
0
  0
POLYLINE
  8
0
 66
1
 10
0.000000
 20
0.000000
 30
0.000000
 40
0.050000
 41
0.050000
 70
0
  0
VERTEX
  8
0
 10
0.425000
 20
-0.237868
 30
0.000000
 42
1.000000
  0
VERTEX
  8
0
 10
0.475000
 20
-0.237868
 30
0.000000
  0
SEQEND
  8
0
  0
POLYLINE
  8
0
 66
1
 10
0.000000
 20
0.000000
 30
0.000000
 40
0.050000
 41
0.050000
 70
0
  0
VERTEX
  8
0
 10
0.475000
 20
0.237868
 30
0.000000
 42
1.000000
  0
VERTEX
  8
0
 10
0.425000
 20
0.237868
 30
0.000000
  0
SEQEND
  8
0
  0
POLYLINE
  8
0
 66
1
 10
0.000000
 20
0.000000
 30
0.000000
 40
0.100000
 41
0.100000
 70
0
  0
VERTEX
  8
0
 10
0.237868
 20
-0.450000
 30
0.000000
  0
VERTEX
  8
0
 10
-0.237868
 20
-0.450000
 30
0.000000
  0
SEQEND
  8
0
  0
POLYLINE
  8
0
 66
1
 10
0.000000
 20
0.000000
 30
0.000000
 40
0.050000
 41
0.050000
 70
0
  0
VERTEX
  8
0
 10
-0.237868
 20
-0.425000
 30
0.000000
 42
1.000000
  0
VERTEX
  8
0
 10
-0.237868
 20
-0.475000
 30
0.000000
  0
SEQEND
  8
0
  0
POLYLINE
  8
0
 66
1
 10
0.000000
 20
0.000000
 30
0.000000
 40
0.050000
 41
0.050000
 70
0
  0
VERTEX
  8
0
 10
0.237868
 20
-0.475000
 30
0.000000
 42
1.000000
  0
VERTEX
  8
0
 10
0.237868
 20
-0.425000
 30
0.000000
  0
SEQEND
  8
0
  0
POLYLINE
  8
0
 66
1
 10
0.000000
 20
0.000000
 30
0.000000
 40
0.100000
 41
0.100000
 70
0
  0
VERTEX
  8
0
 10
-0.450000
 20
-0.237868
 30
0.000000
  0
VERTEX
  8
0
 10
-0.450000
 20
0.237868
 30
0.000000
  0
SEQEND
  8
0
  0
POLYLINE
  8
0
 66
1
 10
0.000000
 20
0.000000
 30
0.000000
 40
0.050000
 41
0.050000
 70
0
  0
VERTEX
  8
0
 10
-0.425000
 20
0.237868
 30
0.000000
 42
1.000000
  0
VERTEX
  8
0
 10
-0.475000
 20
0.237868
 30
0.000000
  0
SEQEND
  8
0
  0
POLYLINE
  8
0
 66
1
 10
0.000000
 20
0.000000
 30
0.000000
 40
0.050000
 41
0.050000
 70
0
  0
VERTEX
  8
0
 10
-0.475000
 20
-0.237868
 30
0.000000
 42
1.000000
  0
VERTEX
  8
0
 10
-0.425000
 20
-0.237868
 30
0.000000
  0
SEQEND
  8
0
  0
ENDBLK
  8
0
  0
ENDSEC
  0
SECTION
  2
ENTITIES
  0
LINE
  8
20
 10
0.000000
 20
0.000000
 30
0.000000
 11
1.023622
 21
0.000000
 31
0.000000
  0
LINE
  8
20
 10
0.000000
 20
0.000000
 30
0.000000
 11
0.000000
 21
1.310464
 31
0.000000
  0
ARC
  8
20
 10
0.039370
 20
1.310464
 30
0.000000
 40
0.039370
 50
134.999948
 51
179.999948
  0
LINE
  8
20
 10
0.011531
 20
1.338303
 30
0.000000
 11
0.618390
 21
1.945162
 31
0.000000
  0
ARC
  8
20
 10
0.646229
 20
1.917323
 30
0.000000
 40
0.039370
 50
90.000052
 51
135.000052
  0
LINE
  8
20
 10
0.646229
 20
1.956693
 30
0.000000
 11
0.984252
 21
1.956693
 31
0.000000
  0
ARC
  8
20
 10
0.984252
 20
1.917323
 30
0.000000
 40
0.039370
 50
0.000000
 51
90.000000
  0
LINE
  8
20
 10
1.023622
 20
1.917323
 30
0.000000
 11
1.023622
 21
0.000000
 31
0.000000
  0
LINE
  8
20
 10
0.892913
 20
0.875984
 30
0.000000
 11
0.381102
 21
0.875984
 31
0.000000
  0
ARC
  8
20
 10
0.381102
 20
0.915354
 30
0.000000
 40
0.039370
 50
180.000000
 51
270.000000
  0
LINE
  8
20
 10
0.341732
 20
0.915354
 30
0.000000
 11
0.341732
 21
1.230315
 31
0.000000
  0
ARC
  8
20
 10
0.381102
 20
1.230315
 30
0.000000
 40
0.039370
 50
90.000000
 51
180.000000
  0
LINE
  8
20
 10
0.381102
 20
1.269685
 30
0.000000
 11
0.892913
 21
1.269685
 31
0.000000
  0
ARC
  8
20
 10
0.892913
 20
1.230315
 30
0.000000
 40
0.039370
 50
0.000000
 51
90.000000
  0
LINE
  8
20
 10
0.932283
 20
1.230315
 30
0.000000
 11
0.932283
 21
0.915354
 31
0.000000
  0
ARC
  8
20
 10
0.892913
 20
0.915354
 30
0.000000
 40
0.039370
 50
270.000000
 51
0.000000
  0
CIRCLE
  8
20
 10
0.905512
 20
1.838583
 30
0.000000
 40
0.035000
  0
CIRCLE
  8
20
 10
0.266929
 20
0.578740
 30
0.000000
 40
0.035000
  0
POINT
  8
23
 10
0.511811
 20
0.000000
 30
0.000000
  0
CIRCLE
  8
20
 10
0.807087
 20
0.196850
 30
0.000000
 40
0.055118
  0
CIRCLE
  8
20
 10
0.216535
 20
0.196850
 30
0.000000
 40
0.055118
  0
CIRCLE
  8
20
 10
0.807087
 20
0.354331
 30
0.000000
 40
0.046260
  0
CIRCLE
  8
20
 10
0.216535
 20
0.354331
 30
0.000000
 40
0.046260
  0
CIRCLE
  8
20
 10
0.511811
 20
0.196850
 30
0.000000
 40
0.025591
  0
CIRCLE
  8
20
 10
0.511811
 20
0.354331
 30
0.000000
 40
0.025591
  0
INSERT
  8
17
  2
ROUNDP
 10
0.581408
 20
0.423928
 30
0.000000
 41
0.070866
 42
0.070866
 43
1.000000
 50
180.000000
  0
INSERT
  8
17
  2
ROUNDP
 10
0.581408
 20
0.423928
 30
0.000000
 41
0.070866
 42
0.070866
 43
1.000000
 50
180.000000
  0
INSERT
  8
17
  2
ROUNDP
 10
0.442214
 20
0.423928
 30
0.000000
 41
0.070866
 42
0.070866
 43
1.000000
 50
180.000000
  0
INSERT
  8
17
  2
ROUNDP
 10
0.442214
 20
0.423928
 30
0.000000
 41
0.070866
 42
0.070866
 43
1.000000
 50
180.000000
  0
INSERT
  8
17
  2
ROUNDP
 10
0.442214
 20
0.284734
 30
0.000000
 41
0.070866
 42
0.070866
 43
1.000000
 50
180.000000
  0
INSERT
  8
17
  2
ROUNDP
 10
0.442214
 20
0.284734
 30
0.000000
 41
0.070866
 42
0.070866
 43
1.000000
 50
180.000000
  0
INSERT
  8
17
  2
ROUNDP
 10
0.581408
 20
0.284734
 30
0.000000
 41
0.070866
 42
0.070866
 43
1.000000
 50
180.000000
  0
INSERT
  8
17
  2
ROUNDP
 10
0.581408
 20
0.284734
 30
0.000000
 41
0.070866
 42
0.070866
 43
1.000000
 50
180.000000
  0
POINT
  8
23
 10
0.119685
 20
0.740551
 30
0.000000
  0
INSERT
  8
17
  2
ROUNDP
 10
0.119685
 20
0.590551
 30
0.000000
 41
0.060000
 42
0.060000
 43
1.000000
 50
180.000000
  0
INSERT
  8
17
  2
ROUNDP
 10
0.119685
 20
0.590551
 30
0.000000
 41
0.060000
 42
0.060000
 43
1.000000
 50
180.000000
  0
INSERT
  8
17
  2
ROUNDP
 10
0.119685
 20
0.690551
 30
0.000000
 41
0.060000
 42
0.060000
 43
1.000000
 50
180.000000
  0
INSERT
  8
17
  2
ROUNDP
 10
0.119685
 20
0.690551
 30
0.000000
 41
0.060000
 42
0.060000
 43
1.000000
 50
180.000000
  0
INSERT
  8
17
  2
ROUNDP
 10
0.119685
 20
0.790551
 30
0.000000
 41
0.060000
 42
0.060000
 43
1.000000
 50
180.000000
  0
INSERT
  8
17
  2
ROUNDP
 10
0.119685
 20
0.790551
 30
0.000000
 41
0.060000
 42
0.060000
 43
1.000000
 50
180.000000
  0
INSERT
  8
17
  2
ROUNDP
 10
0.119685
 20
0.890551
 30
0.000000
 41
0.060000
 42
0.060000
 43
1.000000
 50
180.000000
  0
INSERT
  8
17
  2
ROUNDP
 10
0.119685
 20
0.890551
 30
0.000000
 41
0.060000
 42
0.060000
 43
1.000000
 50
180.000000
  0
ENDSEC
  0
EOF
